<svg width="52" height="52" viewBox="0 0 52 52" fill="none" xmlns="http://www.w3.org/2000/svg">
<path d="M35.3471 16.6529C35.5053 16.8112 35.5942 17.0258 35.5942 17.2496C35.5942 17.4733 35.5053 17.6879 35.3471 17.8462L27.1933 26L35.3471 34.1538C35.5053 34.3121 35.5942 34.5267 35.5942 34.7504C35.5942 34.9742 35.5053 35.1888 35.3471 35.3471C35.1889 35.5053 34.9743 35.5942 34.7505 35.5942C34.5267 35.5942 34.3121 35.5053 34.1539 35.3471L26 27.1932L17.8462 35.3471C17.688 35.5053 17.4734 35.5942 17.2496 35.5942C17.0258 35.5942 16.8112 35.5053 16.653 35.3471C16.4947 35.1888 16.4058 34.9742 16.4058 34.7504C16.4058 34.5267 16.4947 34.3121 16.653 34.1538L24.8068 26L16.653 17.8462C16.4947 17.6879 16.4058 17.4733 16.4058 17.2496C16.4058 17.0258 16.4947 16.8112 16.653 16.6529C16.8112 16.4947 17.0258 16.4058 17.2496 16.4058C17.4734 16.4058 17.688 16.4947 17.8462 16.6529L26 24.8068L34.1539 16.6529C34.3121 16.4947 34.5267 16.4058 34.7505 16.4058C34.9743 16.4058 35.1889 16.4947 35.3471 16.6529Z" fill="#FFF706"/>
</svg>
